REM DIRINDEX 1\3,1\4,1\5,1\6,1\2\7,1\2\8,1\2\9,1\10
REM DIRNAME folder01,folder02,folder03,folder04,folder05,folder06,folder07,folder08,folder09,folder10
TITLE ""
FILE "1-23 Level 2-187-201.mp3" MP3
  TRACK 01 AUDIO
    TITLE "0:"
    INDEX 01 00:00:00
  TRACK 02 AUDIO
    TITLE "7:cjc056_0654"
    INDEX 01 00:00:07
  TRACK 03 AUDIO
    TITLE "0:"
    INDEX 01 00:01:11
  TRACK 04 AUDIO
    TITLE "8:cjc056_0655"
    INDEX 01 00:01:22
  TRACK 05 AUDIO
    TITLE "0:"
    INDEX 01 00:02:47
  TRACK 06 AUDIO
    TITLE "9:cjc056_0656"
    INDEX 01 00:02:61
  TRACK 07 AUDIO
    TITLE "0:"
    INDEX 01 00:04:38
  TRACK 08 AUDIO
    TITLE "7:cjc056_0657"
    INDEX 01 00:05:12
  TRACK 09 AUDIO
    TITLE "0:"
    INDEX 01 00:06:10
  TRACK 10 AUDIO
    TITLE "8:cjc056_0658"
    INDEX 01 00:06:24
  TRACK 11 AUDIO
    TITLE "0:"
    INDEX 01 00:07:60
  TRACK 12 AUDIO
    TITLE "9:cjc056_0659"
    INDEX 01 00:07:74
  TRACK 13 AUDIO
    TITLE "0:"
    INDEX 01 00:09:38
  TRACK 14 AUDIO
    TITLE "7:cjc056_0660"
    INDEX 01 00:10:14
  TRACK 15 AUDIO
    TITLE "0:"
    INDEX 01 00:11:19
  TRACK 16 AUDIO
    TITLE "8:cjc056_0661"
    INDEX 01 00:11:33
  TRACK 17 AUDIO
    TITLE "0:"
    INDEX 01 00:12:22
  TRACK 18 AUDIO
    TITLE "9:cjc056_0662"
    INDEX 01 00:12:36
  TRACK 19 AUDIO
    TITLE "0:"
    INDEX 01 00:14:27
  TRACK 20 AUDIO
    TITLE "7:cjc056_0663"
    INDEX 01 00:15:03
  TRACK 21 AUDIO
    TITLE "0:"
    INDEX 01 00:16:14
  TRACK 22 AUDIO
    TITLE "8:cjc056_0664"
    INDEX 01 00:16:28
  TRACK 23 AUDIO
    TITLE "0:"
    INDEX 01 00:17:20
  TRACK 24 AUDIO
    TITLE "9:cjc056_0665"
    INDEX 01 00:17:33
  TRACK 25 AUDIO
    TITLE "0:"
    INDEX 01 00:19:15
  TRACK 26 AUDIO
    TITLE "7:cjc056_0666"
    INDEX 01 00:19:63
  TRACK 27 AUDIO
    TITLE "0:"
    INDEX 01 00:20:69
  TRACK 28 AUDIO
    TITLE "8:cjc056_0667"
    INDEX 01 00:21:08
  TRACK 29 AUDIO
    TITLE "0:"
    INDEX 01 00:21:74
  TRACK 30 AUDIO
    TITLE "9:cjc056_0668"
    INDEX 01 00:22:13
  TRACK 31 AUDIO
    TITLE "0:"
    INDEX 01 00:24:12
  TRACK 32 AUDIO
    TITLE "7:cjc056_0669"
    INDEX 01 00:24:65
  TRACK 33 AUDIO
    TITLE "0:"
    INDEX 01 00:25:70
  TRACK 34 AUDIO
    TITLE "8:cjc056_0670"
    INDEX 01 00:26:11
  TRACK 35 AUDIO
    TITLE "0:"
    INDEX 01 00:27:04
  TRACK 36 AUDIO
    TITLE "9:cjc056_0671"
    INDEX 01 00:27:18
  TRACK 37 AUDIO
    TITLE "0:"
    INDEX 01 00:28:53
  TRACK 38 AUDIO
    TITLE "7:cjc056_0672"
    INDEX 01 00:29:29
  TRACK 39 AUDIO
    TITLE "0:"
    INDEX 01 00:30:44
  TRACK 40 AUDIO
    TITLE "8:cjc056_0673"
    INDEX 01 00:30:54
  TRACK 41 AUDIO
    TITLE "0:"
    INDEX 01 00:31:47
  TRACK 42 AUDIO
    TITLE "9:cjc056_0674"
    INDEX 01 00:31:61
  TRACK 43 AUDIO
    TITLE "0:"
    INDEX 01 00:33:28
  TRACK 44 AUDIO
    TITLE "7:cjc056_0675"
    INDEX 01 00:34:08
  TRACK 45 AUDIO
    TITLE "0:"
    INDEX 01 00:35:02
  TRACK 46 AUDIO
    TITLE "8:cjc056_0676"
    INDEX 01 00:35:15
  TRACK 47 AUDIO
    TITLE "0:"
    INDEX 01 00:35:72
  TRACK 48 AUDIO
    TITLE "9:cjc056_0677"
    INDEX 01 00:36:11
  TRACK 49 AUDIO
    TITLE "0:"
    INDEX 01 00:37:61
  TRACK 50 AUDIO
    TITLE "7:cjc056_0678"
    INDEX 01 00:38:39
  TRACK 51 AUDIO
    TITLE "0:"
    INDEX 01 00:39:47
  TRACK 52 AUDIO
    TITLE "8:cjc056_0679"
    INDEX 01 00:39:60
  TRACK 53 AUDIO
    TITLE "0:"
    INDEX 01 00:40:38
  TRACK 54 AUDIO
    TITLE "9:cjc056_0680"
    INDEX 01 00:40:54
  TRACK 55 AUDIO
    TITLE "0:"
    INDEX 01 00:42:29
  TRACK 56 AUDIO
    TITLE "7:cjc056_0681"
    INDEX 01 00:43:05
  TRACK 57 AUDIO
    TITLE "0:"
    INDEX 01 00:44:16
  TRACK 58 AUDIO
    TITLE "8:cjc056_0682"
    INDEX 01 00:44:30
  TRACK 59 AUDIO
    TITLE "0:"
    INDEX 01 00:45:30
  TRACK 60 AUDIO
    TITLE "9:cjc056_0683"
    INDEX 01 00:45:41
  TRACK 61 AUDIO
    TITLE "0:"
    INDEX 01 00:47:15
  TRACK 62 AUDIO
    TITLE "7:cjc056_0684"
    INDEX 01 00:47:66
  TRACK 63 AUDIO
    TITLE "0:"
    INDEX 01 00:49:00
  TRACK 64 AUDIO
    TITLE "8:cjc056_0685"
    INDEX 01 00:49:14
  TRACK 65 AUDIO
    TITLE "0:"
    INDEX 01 00:50:29
  TRACK 66 AUDIO
    TITLE "9:cjc056_0686"
    INDEX 01 00:50:41
  TRACK 67 AUDIO
    TITLE "0:"
    INDEX 01 00:51:71
  TRACK 68 AUDIO
    TITLE "7:cjc056_0687"
    INDEX 01 00:52:61
  TRACK 69 AUDIO
    TITLE "0:"
    INDEX 01 00:53:57
  TRACK 70 AUDIO
    TITLE "8:cjc056_0688"
    INDEX 01 00:53:68
  TRACK 71 AUDIO
    TITLE "0:"
    INDEX 01 00:55:55
  TRACK 72 AUDIO
    TITLE "9:cjc056_0689"
    INDEX 01 00:55:69
  TRACK 73 AUDIO
    TITLE "0:"
    INDEX 01 00:57:31
  TRACK 74 AUDIO
    TITLE "7:cjc056_0690"
    INDEX 01 00:58:07
  TRACK 75 AUDIO
    TITLE "0:"
    INDEX 01 00:59:12
  TRACK 76 AUDIO
    TITLE "8:cjc056_0691"
    INDEX 01 00:59:26
  TRACK 77 AUDIO
    TITLE "0:"
    INDEX 01 01:00:23
  TRACK 78 AUDIO
    TITLE "9:cjc056_0692"
    INDEX 01 01:00:35
  TRACK 79 AUDIO
    TITLE "0:"
    INDEX 01 01:02:40
  TRACK 80 AUDIO
    TITLE "7:cjc056_0693"
    INDEX 01 01:03:16
  TRACK 81 AUDIO
    TITLE "0:"
    INDEX 01 01:04:09
  TRACK 82 AUDIO
    TITLE "8:cjc056_0694"
    INDEX 01 01:04:23
  TRACK 83 AUDIO
    TITLE "0:"
    INDEX 01 01:05:32
  TRACK 84 AUDIO
    TITLE "9:cjc056_0695"
    INDEX 01 01:05:44
  TRACK 85 AUDIO
    TITLE "0:"
    INDEX 01 01:07:10
  TRACK 86 AUDIO
    TITLE "7:cjc056_0696"
    INDEX 01 01:07:63
  TRACK 87 AUDIO
    TITLE "0:"
    INDEX 01 01:08:70
  TRACK 88 AUDIO
    TITLE "8:cjc056_0697"
    INDEX 01 01:09:10
  TRACK 89 AUDIO
    TITLE "0:"
    INDEX 01 01:10:39
  TRACK 90 AUDIO
    TITLE "9:cjc056_0698"
    INDEX 01 01:10:55
  TRACK 91 AUDIO
    TITLE "0:"
    INDEX 01 01:12:36
